grf
version=1
nRows=18
nColumns=28
inDegrees=no
endheader
time	ground_force_1_vx	ground_force_1_vy	ground_force_1_vz	ground_force_1_px	ground_force_1_py	ground_force_1_pz	ground_moment_1_mx	ground_moment_1_my	ground_moment_1_mz	ground_force_2_vx	ground_force_2_vy	ground_force_2_vz	ground_force_2_px	ground_force_2_py	ground_force_2_pz	ground_moment_2_mx	ground_moment_2_my	ground_moment_2_mz	ground_force_3_vx	ground_force_3_vy	ground_force_3_vz	ground_force_3_px	ground_force_3_py	ground_force_3_pz	ground_moment_3_mx	ground_moment_3_my	ground_moment_3_mz
      0.00000000	      0.56584671	      0.28624725	      1.42611340	    287.54267691	  -1212.29433335	      1.95334403	      0.09357456	      0.33836682	    185.40679857	      0.38908236	      0.07682725	      2.09628413	    102.29545641	  -1534.81165130	      0.30391428	     -0.00736831	     -0.09529390	    114.18815020	      1.66142027	     -0.85538886	      3.52939749	    464.53304879	   -194.13316389	      0.20047892	     -0.15248638	      1.12015378	    545.44784402
      0.01000000	      0.48498037	      0.32647912	      1.50617024	    254.72510810	  -1202.52398273	      1.95207615	      0.07487491	      0.27074864	    148.35567668	      0.50622363	      0.03819028	      2.27235277	    128.58711594	  -1491.90716578	      0.34141608	     -0.00962361	     -0.12446156	    149.13898264	      1.54390554	     -1.05303982	      4.08120177	    484.48280986	   -286.57570286	      0.39589985	     -0.14192604	      1.04257833	    507.67324482
      0.02000000	      0.44491082	      0.20606742	      1.66358954	    286.17619408	  -1275.07402246	      2.06860642	      0.05478019	      0.19808586	    108.54038721	      0.50598984	      0.07708686	      1.92486462	     53.54336538	  -1510.81295800	      0.32079614	     -0.01101745	     -0.14248794	    170.73951297	      1.58228319	     -0.85421117	      4.31757508	    488.32679732	   -253.25735108	      0.32855057	     -0.14191897	      1.04252641	    507.64796184
      0.03000000	      0.52554896	      0.32731226	      1.82144866	    329.71081824	  -1219.86224130	      1.94587323	      0.08499764	      0.30735256	    168.41265325	      0.46768525	     -0.04046112	      2.44722821	    177.64434541	  -1552.74654116	      0.29380910	     -0.01017344	     -0.13157252	    157.65985323	      1.50231920	     -0.65738998	      3.92391975	    444.02850890	   -201.59465280	      0.21006985	     -0.12191664	      0.89559072	    436.09907884
      0.04000000	      0.60595496	      0.40714225	      1.34685364	    241.27964422	  -1275.87194666	      2.09272186	      0.09514930	      0.34406108	    188.52694694	      0.54511498	      0.07712815	      1.92281632	    100.26955652	  -1484.98772182	      0.34536332	     -0.01539341	     -0.19908196	    238.55462125	      1.42179473	     -0.37968770	      4.31676303	    439.33890157	   -272.12863353	      0.35361026	     -0.07667715	      0.56326472	    274.27620739
      0.05000000	      0.48488639	      0.40729026	      1.66500869	    239.41809576	  -1204.84382176	      1.96403528	      0.10668513	      0.38577483	    211.38383212	      0.58387888	      0.07721233	      2.53497775	    180.32720627	  -1572.08104902	      0.27784691	     -0.00642089	     -0.08304098	     99.50579964	      1.42425767	     -0.85422350	      4.71116900	    481.13494597	   -298.85278675	      0.42017664	     -0.09019884	      0.66259410	    322.64367004
      0.06000000	      0.32370787	      0.28679464	      2.06016389	    316.35623041	  -1193.88138876	      1.90519830	      0.08215526	      0.29707449	    162.78082227	      0.46690293	      0.11592496	      2.26910681	    155.73623708	  -1619.22162748	      0.23691969	     -0.00712470	     -0.09214331	    110.41287676	      1.26602678	     -0.77630306	      4.47573643	    417.00506672	   -298.55784630	      0.40164267	     -0.06117577	      0.44939275	    218.82737227
      0.07000000	     -0.28367067	      0.68721598	      1.34822240	    202.88071990	  -1262.74523797	      2.08814555	      0.16850945	      0.60933236	    333.88132447	      0.38948159	     -0.04023594	      1.74887154	     49.21052614	  -1451.77104228	      0.36978904	     -0.00694804	     -0.08985857	    107.67514034	    -46.83959029	     54.63997822	   -218.72504718	    497.41226165	   -259.03403064	      0.34295374	      0.44711277	     -3.28445776	  -1599.33434066
      0.08000000	      0.88807861	      0.56615981	      0.55525228	     19.43592664	  -1169.37746821	      2.01033400	      0.23792435	      0.86033753	    471.41864127	      0.70279234	     -0.31078037	      1.30964596	    -11.20569961	  -1382.78807958	      0.42345915	     -0.00670527	     -0.08671891	    103.91295907	   -201.41037351	    275.55318562	  -1113.02491879	    489.47381701	   -294.38330629	      0.41332916	     -0.33020689	      2.42567570	   1181.15888118
      0.09000000	      0.40419701	      0.56980263	      2.61289598	    333.27584467	  -1255.89614113	      2.00983572	      0.09344614	      0.33790246	    185.15235497	      0.62250261	      0.19476297	      2.01116813	    122.81821926	  -1512.25636142	      0.32406172	     -0.01387184	     -0.17940366	    214.97463879	     23.28323115	     76.34567051	  -1585.67172743	    465.88486092	   -287.27144286	      0.39212938	     -0.77951747	      5.72627837	   2788.35482606
      0.10000000	      0.36434569	      0.12540454	      1.82179793	    303.23096164	  -1284.86876767	      2.07787429	      0.04151495	      0.15011859	     82.25690342	      0.38841236	      0.23171883	      2.70882804	    199.79647991	  -1623.88664111	      0.23586969	     -0.01124061	     -0.14537412	    174.19794974	     69.06303004	    121.07730722	  -1741.55392522	    460.72331358	   -304.96287987	      0.42701826	      1.86640030	    -13.71044028	  -6676.16379852
      0.11000000	      0.04063405	      0.32558785	      1.82478603	    228.77319096	  -1186.57038702	      1.93605879	      0.12893087	      0.46621569	    255.46109591	      0.42656125	      0.42741085	      1.57327856	     61.39361030	  -1448.69228900	      0.37314451	     -0.02421263	     -0.31314050	    375.22794153	     29.24417988	    374.73649742	  -1937.61961483	    462.06003383	   -331.91506200	      0.48274205	      2.36455635	    -17.36985820	  -8458.08129552
      0.12000000	      0.48482155	      0.32530403	      1.18894644	    235.04798333	  -1231.42941949	      2.01475950	      0.08881715	      0.32116396	    175.98055425	      0.30964539	      0.38747913	      2.18599166	    124.79113319	  -1559.98099593	      0.28436120	     -0.01555355	     -0.20115315	    241.03646988	     -7.74094509	    299.88193640	  -2046.22523383	    463.38023217	   -341.05970362	      0.50189093	      1.44845126	    -10.64021713	  -5181.14888639
      0.13000000	      0.28326380	      0.04210058	      0.95283088	    180.97499571	  -1141.48508769	      1.87790194	      0.10718297	      0.38757501	    212.37023708	      0.62333590	      0.03903602	      1.39946964	   -122.21476855	  -1365.19220688	      0.43098033	     -0.02108490	     -0.27268970	    326.75682529	     -9.43054560	    259.05107277	  -2288.03666814	    462.50258656	   -344.10050674	      0.50789029	      1.28581225	     -9.44548284	  -4599.38479910
      0.14000000	      0.40418364	      0.20388833	      1.03079341	    187.24758337	  -1292.05001707	      2.14951670	      0.07978836	      0.28851573	    158.09108278	      0.62152798	      0.38925583	      2.09871356	     71.06181927	  -1515.71641627	      0.31783446	     -0.01916200	     -0.24782091	    296.95720803	    -31.05008772	    193.79657201	  -2488.16186063	    462.58234291	   -345.21759758	      0.51020669	      0.51574179	     -3.78860151	  -1844.82217607
      0.15000000	      0.52556641	      0.24485112	      1.50514820	    279.73722618	  -1265.10770848	      2.05366767	      0.08198846	      0.29647132	    162.45032052	      0.30989654	      0.34865970	      2.27420793	    144.52711474	  -1579.67240782	      0.26920156	     -0.01394918	     -0.18040394	    216.17324200	    -55.34283147	     92.64877956	  -2606.06360539	    463.30367800	   -345.92478671	      0.51186066	     -0.07628206	      0.56036241	    272.86295162
      0.16000000	      0.52551211	      0.32597740	      1.74333379	    265.27247851	  -1249.75080398	      2.03294171	      0.09058959	      0.32757312	    179.49243393	      0.42731486	      0.23197444	      2.44865772	    178.19533738	  -1555.31860653	      0.29169818	     -0.01272132	     -0.16452405	    197.14480158	    -44.08048166	     24.97680437	  -2642.14704960	    463.00739482	   -349.30523275	      0.51872005	      0.52323453	     -3.84364262	  -1871.62390177
      0.17000000	      0.64733751	      0.12517367	      2.05992516	    291.28544511	  -1253.17007111	      2.02605315	      0.09362760	      0.33855860	    185.51188120	      0.73914149	      0.23376374	      2.01216198	    121.67537208	  -1488.89662513	      0.34348247	     -0.01768266	     -0.22868880	    274.03170783	    -27.79264763	    -43.19456093	  -2567.99715733	    463.10778558	   -355.11405224	      0.53067734	      0.85847714	     -6.30631034	  -3070.79568181
